<?xml version="1.0" encoding="UTF-8" standalone="no"?>
<svg
   xmlns:dc="http://purl.org/dc/elements/1.1/"
   xmlns:cc="http://creativecommons.org/ns#"
   xmlns:rdf="http://www.w3.org/1999/02/22-rdf-syntax-ns#"
   xmlns:svg="http://www.w3.org/2000/svg"
   xmlns="http://www.w3.org/2000/svg"
   xmlns:sodipodi="http://sodipodi.sourceforge.net/DTD/sodipodi-0.dtd"
   xmlns:inkscape="http://www.inkscape.org/namespaces/inkscape"
   inkscape:version="1.0 (4035a4f, 2020-05-01)"
   sodipodi:docname="mtna.svg"
   id="svg106"
   version="1.1"
   fill="none"
   viewBox="0 0 184 51"
   height="51"
   width="184">
  <metadata
     id="metadata110">
    <rdf:RDF>
      <cc:Work
         rdf:about="">
        <dc:format>image/svg+xml</dc:format>
        <dc:type
           rdf:resource="http://purl.org/dc/dcmitype/StillImage" />
        <dc:title></dc:title>
      </cc:Work>
    </rdf:RDF>
  </metadata>
  <sodipodi:namedview
     inkscape:current-layer="svg106"
     inkscape:window-maximized="0"
     inkscape:window-y="23"
     inkscape:window-x="0"
     inkscape:cy="25.5"
     inkscape:cx="92.873694"
     inkscape:zoom="5.7228261"
     showgrid="false"
     id="namedview108"
     inkscape:window-height="1035"
     inkscape:window-width="1920"
     inkscape:pageshadow="2"
     inkscape:pageopacity="0"
     guidetolerance="10"
     gridtolerance="10"
     objecttolerance="10"
     borderopacity="1"
     bordercolor="#666666"
     pagecolor="#ffffff" />
  <g
     id="g99"
     clip-path="url(#clip0)">
    <path
       id="path87"
       fill="white"
       d="M92.7625 11.7185C91.0292 11.7185 89.4333 12.0659 88.0125 12.7479C86.6667 13.3913 85.5208 14.2835 84.6 15.3987C83.7958 14.2578 82.775 13.357 81.5625 12.7265C80.2792 12.0574 78.8125 11.7185 77.2042 11.7185C75.8792 11.7185 74.6292 11.9587 73.4917 12.4305C72.475 12.8509 71.575 13.4299 70.8083 14.1506C70.7167 13.5758 70.475 13.0911 70.0917 12.7093C69.6208 12.2418 69.0125 12.0059 68.2833 12.0059C67.5542 12.0059 66.9375 12.2504 66.45 12.7308C65.9625 13.2155 65.7167 13.8589 65.7167 14.6438V36.0476C65.7167 36.8025 65.9625 37.4373 66.4458 37.9349C66.9292 38.4324 67.5458 38.6855 68.2792 38.6855C69.0417 38.6855 69.6708 38.4324 70.1375 37.9306C70.6042 37.433 70.8417 36.7982 70.8417 36.0433V22.4847C70.8417 20.7475 71.35 19.302 72.3583 18.1868C73.3583 17.0759 74.675 16.514 76.2667 16.514C77.7958 16.514 79.0333 17.003 79.9417 17.9723C80.8542 18.9417 81.3167 20.3958 81.3167 22.2917V36.0476C81.3167 36.8025 81.5625 37.4373 82.0458 37.9349C82.5292 38.4324 83.1458 38.6855 83.8792 38.6855C84.6417 38.6855 85.2708 38.4324 85.7375 37.9306C86.2042 37.433 86.4417 36.7982 86.4417 36.0433V22.4847C86.4417 20.7475 86.95 19.302 87.9583 18.1868C88.9583 17.0759 90.2583 16.514 91.8167 16.514C93.3458 16.514 94.5833 17.003 95.4917 17.9723C96.4042 18.9417 96.8667 20.3958 96.8667 22.2917V36.0476C96.8667 36.8025 97.1125 37.4373 97.5958 37.9349C98.0792 38.4324 98.6958 38.6855 99.4292 38.6855C100.192 38.6855 100.821 38.4324 101.288 37.9306C101.754 37.433 101.992 36.7982 101.992 36.0433V22.296C101.992 18.9932 101.133 16.3767 99.4417 14.5194C97.7625 12.6579 95.5125 11.7185 92.7625 11.7185Z" />
    <path
       id="path89"
       fill="#80BC00"
       d="M122.167 34.1903C121.742 33.7013 121.217 33.4525 120.604 33.4525H119.017C118.067 33.4525 117.292 33.0493 116.638 32.2215C115.983 31.3936 115.65 30.3513 115.65 29.116V17.4319H119.438C120.133 17.4319 120.713 17.2217 121.15 16.8056C121.592 16.3853 121.817 15.8534 121.817 15.2229C121.817 14.5323 121.592 13.9661 121.15 13.5458C120.713 13.1297 120.133 12.9195 119.438 12.9195H115.65V6.18098C115.65 5.42606 115.413 4.79982 114.942 4.31512C114.471 3.83043 113.863 3.58594 113.129 3.58594C112.396 3.58594 111.788 3.83043 111.317 4.31512C110.846 4.79982 110.608 5.42606 110.608 6.18098V12.9195H108.642C107.942 12.9195 107.367 13.1297 106.929 13.5458C106.488 13.9661 106.263 14.5323 106.263 15.2229C106.263 15.8534 106.488 16.3853 106.929 16.8056C107.367 17.2217 107.942 17.4319 108.642 17.4319H110.608V29.1246C110.608 30.9132 110.975 32.5432 111.704 33.9715C112.433 35.4042 113.45 36.5537 114.733 37.3858C116.017 38.218 117.458 38.6426 119.013 38.6426H119.854C120.704 38.6426 121.413 38.4024 121.958 37.9263C122.513 37.4416 122.796 36.8111 122.796 36.0519C122.796 35.3012 122.588 34.675 122.167 34.1903Z" />
    <path
       id="path91"
       fill="white"
       d="M147.042 13.1811C145.308 12.2074 143.329 11.7141 141.163 11.7141C139.592 11.7141 138.092 12.0015 136.704 12.5677C135.458 13.0781 134.35 13.7901 133.404 14.6823V14.5965C133.404 13.8116 133.167 13.1682 132.696 12.6835C132.225 12.1988 131.6 11.9543 130.838 11.9543C130.104 11.9543 129.488 12.1988 129.004 12.6792C128.517 13.1639 128.271 13.8073 128.271 14.5923V36.0432C128.271 36.7981 128.517 37.4329 129 37.9305C129.483 38.428 130.1 38.6811 130.833 38.6811C131.596 38.6811 132.225 38.428 132.692 37.9262C133.158 37.4286 133.396 36.7938 133.396 36.0389V22.4846C133.396 21.3737 133.692 20.3571 134.275 19.4649C134.863 18.5685 135.688 17.8436 136.725 17.316C137.771 16.7841 138.946 16.5182 140.217 16.5182C142.4 16.5182 144.171 17.1701 145.488 18.4612C146.8 19.748 147.463 21.6868 147.463 24.2175V36.0475C147.463 36.8024 147.708 37.4372 148.192 37.9348C148.675 38.4323 149.292 38.6854 150.025 38.6854C150.758 38.6854 151.375 38.4323 151.858 37.9348C152.342 37.4372 152.588 36.7981 152.588 36.0475V24.2175C152.588 21.601 152.092 19.332 151.117 17.4661C150.154 15.6002 148.779 14.159 147.042 13.1811Z" />
    <path
       id="path93"
       fill="white"
       d="M182.271 18.4227C181.121 16.3681 179.546 14.7253 177.579 13.5457C175.613 12.3618 173.388 11.7656 170.971 11.7656C168.55 11.7656 166.313 12.3661 164.317 13.5457C162.321 14.7296 160.733 16.3681 159.6 18.427C158.467 20.4815 157.896 22.8021 157.896 25.3242C157.896 27.8463 158.429 30.1626 159.483 32.2171C160.538 34.2717 162.004 35.906 163.846 37.0769C165.688 38.2436 167.771 38.8356 170.038 38.8356C171.863 38.8356 173.588 38.441 175.163 37.6646C176.588 36.9611 177.829 35.996 178.871 34.7864V36.0518C178.871 36.8067 179.117 37.4415 179.6 37.9391C180.083 38.4367 180.7 38.694 181.433 38.694C182.167 38.694 182.783 38.441 183.267 37.9434C183.75 37.4458 183.996 36.8067 183.996 36.0561V25.3328C184 22.8021 183.417 20.4815 182.271 18.4227ZM166.833 17.6206C168.058 16.8571 169.45 16.471 170.967 16.471C172.483 16.471 173.871 16.8571 175.1 17.6206C176.325 18.3841 177.3 19.4521 178 20.7947C178.7 22.1415 179.054 23.6642 179.054 25.3242C179.054 26.9842 178.7 28.4983 178 29.828C177.3 31.1534 176.325 32.2171 175.1 32.9806C173.875 33.7441 172.483 34.1302 170.967 34.1302C169.45 34.1302 168.058 33.7441 166.833 32.9806C165.604 32.2171 164.621 31.1534 163.908 29.828C163.196 28.5026 162.833 26.9842 162.833 25.3242C162.833 23.6642 163.196 22.1415 163.908 20.7989C164.621 19.4564 165.608 18.3883 166.833 17.6206Z" />
    <path
       id="path95"
       fill="white"
       d="M22.5208 22.4718V0.566191C22.5208 0.25307 22.275 0 21.9708 0H0.691667C0.3625 0 0.2 0.407486 0.429167 0.643399L7.04167 7.45056C2.6875 12.023 0 18.2897 0 25.1998C0 38.1793 9.47083 48.8812 21.6875 50.3824C22.1292 50.4382 22.5167 50.0908 22.5167 49.6361V39.1787C22.5167 38.7369 22.2208 38.3595 21.8042 38.2608C18.8917 37.6002 16.2708 35.9145 14.35 33.3838C12.9375 31.5223 12.0333 29.2918 11.7458 26.9498C11.2417 22.8235 12.5375 18.843 15.2708 15.922L21.8917 22.7377C22.125 22.9779 22.5208 22.8106 22.5208 22.4718Z" />
    <path
       id="path97"
       fill="#80BC00"
       d="M42.2333 42.9487C46.5875 38.3763 49.275 32.1096 49.275 25.1995C49.275 12.22 39.8042 1.51814 27.5833 0.0168719C27.1416 -0.0388894 26.7542 0.308546 26.7542 0.763215V11.2163C26.7542 11.6581 27.05 12.0356 27.4667 12.1342C30.3792 12.7948 33 14.4805 34.925 17.0112C36.3375 18.8728 37.2417 21.1075 37.5292 23.4452C38.0333 27.5715 36.7375 31.552 34.0042 34.4687L27.3792 27.6616C27.15 27.4257 26.7542 27.593 26.7542 27.9275V49.8374C26.7542 50.1505 27 50.4036 27.3042 50.4036H48.5875C48.9125 50.4036 49.075 49.9961 48.8458 49.7602L42.2333 42.9487Z" />
  </g>
  <defs
     id="defs104">
    <clipPath
       id="clip0">
      <rect
         id="rect101"
         fill="white"
         height="50.3996"
         width="184" />
    </clipPath>
  </defs>
  <path
     id="path112"
     d="m 27.128205,50.212303 c -0.286179,-0.16739 -0.305793,-0.895616 -0.305793,-11.353464 0,-8.820104 0.04602,-11.175823 0.218424,-11.180391 0.120133,-0.0032 1.732461,1.549808 3.582952,3.451092 l 3.364529,3.45688 0.705816,-0.786325 c 0.945565,-1.05342 2.183829,-3.593831 2.636654,-5.409334 0.529704,-2.123731 0.409192,-5.424242 -0.271438,-7.433971 -1.448914,-4.278278 -4.764337,-7.534517 -8.893725,-8.734962 -0.57036,-0.165808 -1.069206,-0.428084 -1.169051,-0.614645 -0.104959,-0.196118 -0.174161,-2.4738747 -0.174161,-5.7324193 0,-4.6003174 0.03922,-5.43954797 0.262904,-5.62518653 0.211188,-0.17527085 0.569722,-0.1620577 1.822666,0.0671713 7.542689,1.37995263 14.169395,6.45845323 17.583897,13.47574953 1.10512,2.271178 1.658433,3.879438 2.194306,6.377967 0.521099,2.429641 0.565817,7.288326 0.0892,9.691667 -0.878325,4.428956 -2.802649,8.533084 -5.512146,11.756099 -0.585095,0.695984 -1.06381,1.313957 -1.06381,1.37327 0,0.05931 1.499522,1.63575 3.33227,3.503193 1.832748,1.867442 3.300563,3.490497 3.26181,3.606786 -0.09274,0.278277 -21.194472,0.386216 -21.665305,0.110823 z"
     style="fill:#a0a0a0;stroke:none;stroke-width:0.174739" />
  <path
     id="path114"
     d="M 19.396011,49.876769 C 14.919985,48.854342 11.034049,46.668615 7.5931154,43.237979 3.9469814,39.602756 1.6975204,35.437407 0.57954113,30.250871 0.02161553,27.66254 0.02653857,22.793482 0.58973333,20.170465 1.5431418,15.730071 3.294463,12.062548 6.0092411,8.8212241 6.6023098,8.1131265 7.0654992,7.474022 7.0385508,7.4009918 7.0116024,7.3279617 5.5095435,5.7301174 3.7006419,3.8502268 1.8917405,1.9703363 0.46133845,0.35197628 0.52197068,0.25387129 0.69175197,-0.02084063 21.968901,0.00983158 22.244255,0.28518519 c 0.250902,0.25090175 0.30827,22.25006981 0.05842,22.40448281 -0.08319,0.05141 -1.71001,-1.487656 -3.615151,-3.42016 l -3.463891,-3.513643 -0.419947,0.503596 c -1.42924,1.713934 -2.61233,4.187819 -2.992958,6.258387 -0.270568,1.471858 -0.231468,4.35569 0.07716,5.690604 0.58524,2.531379 1.649537,4.509422 3.441142,6.395517 1.671942,1.760118 3.660879,2.974219 5.901737,3.602576 1.274816,0.357471 1.223172,0.09749 1.223172,6.157385 0,3.99987 -0.05557,5.497817 -0.209686,5.651929 -0.285302,0.285302 -1.182023,0.241512 -2.848244,-0.13909 z"
     style="fill:#000000;stroke-width:0.174739" />
  <path
     id="path116"
     d="m 66.827254,38.04567 c -1.065498,-0.896557 -1.038106,-0.559807 -1.037809,-12.758481 2.5e-4,-10.262032 0.02448,-11.193402 0.305793,-11.753317 0.918837,-1.828831 3.542865,-1.857903 4.365275,-0.04836 0.164094,0.361056 0.312617,0.681503 0.33005,0.712104 0.01743,0.0306 0.373746,-0.205456 0.791806,-0.524569 3.578872,-2.731814 8.936803,-2.396636 12.037981,0.753065 l 1.015194,1.031079 0.924587,-0.886485 c 1.124111,-1.077787 3.275114,-2.174307 4.954589,-2.525707 4.987461,-1.043537 9.309194,1.402357 10.80652,6.115973 0.15265,0.480531 0.35884,1.540007 0.45821,2.35439 0.23656,1.938839 0.23715,15.433314 7e-4,16.284605 -0.0999,0.359524 -0.44732,0.877355 -0.79144,1.179487 -0.52559,0.46148 -0.75051,0.538593 -1.570966,0.538593 -0.836997,0 -1.035385,-0.0715 -1.575805,-0.567902 -0.391494,-0.359607 -0.677429,-0.824262 -0.779591,-1.266856 -0.08873,-0.384426 -0.163209,-4.124854 -0.165502,-8.312065 -0.0046,-8.349011 -0.04072,-8.698291 -1.043512,-10.082604 -0.814896,-1.124931 -1.88787,-1.658098 -3.527906,-1.753038 -2.270224,-0.131421 -3.738069,0.506365 -4.835132,2.10089 -1.040891,1.512885 -1.081852,1.894304 -1.082924,10.08423 -5.25e-4,4.510906 -0.07103,7.690602 -0.178984,8.079265 -0.09986,0.359524 -0.447319,0.877355 -0.79143,1.179487 -0.525596,0.46148 -0.750518,0.538593 -1.570971,0.538593 -0.836997,0 -1.035385,-0.0715 -1.575805,-0.567902 -0.391484,-0.359607 -0.67742,-0.824262 -0.77958,-1.266856 -0.08873,-0.384426 -0.16321,-4.124854 -0.165503,-8.312065 -0.0046,-8.349011 -0.04072,-8.698291 -1.043511,-10.082604 -0.285215,-0.393727 -0.895392,-0.937364 -1.355949,-1.208083 -0.774704,-0.455376 -0.974697,-0.492215 -2.672135,-0.492215 -1.685753,0 -1.900973,0.03893 -2.650097,0.479301 -1.063903,0.625419 -1.969978,1.701245 -2.454414,2.914241 -0.379209,0.949514 -0.390778,1.179916 -0.443795,8.838177 -0.03582,5.173589 -0.12006,8.028827 -0.24629,8.347318 -0.346825,0.875078 -1.106012,1.350688 -2.156021,1.350688 -0.760334,0 -1.038755,-0.08794 -1.495633,-0.472374 z"
     style="fill:#000000;stroke-width:0.174739" />
  <path
     id="path118"
     d="m 129.31498,37.977622 c -0.33853,-0.297233 -0.69942,-0.828002 -0.80198,-1.179487 -0.12614,-0.432295 -0.16924,-4.28571 -0.13321,-11.909721 0.0485,-10.260678 0.0798,-11.30814 0.34943,-11.688961 0.51737,-0.730728 1.20537,-1.064583 2.19642,-1.065823 0.79514,-9.96e-4 1.00403,0.07591 1.53975,0.566855 0.4633,0.424587 0.64495,0.755494 0.7194,1.310541 0.0548,0.408395 0.13193,0.742535 0.17145,0.742535 0.0395,0 0.48245,-0.309995 0.98427,-0.688877 3.15187,-2.379683 7.40638,-2.907551 11.2873,-1.400442 3.36069,1.305085 5.69723,4.214923 6.49724,8.091422 0.29176,1.413726 0.33026,2.426238 0.33229,8.736921 0.002,6.308773 -0.0316,7.209314 -0.28951,7.752823 -0.81109,1.709254 -3.5049,1.694674 -4.32017,-0.02338 -0.24234,-0.510708 -0.28089,-1.495448 -0.28203,-7.205223 -7.2e-4,-3.637518 -0.0815,-7.124779 -0.17956,-7.749471 -0.38103,-2.428063 -1.89901,-4.440383 -3.97762,-5.272967 -0.84939,-0.340223 -1.31836,-0.39958 -3.18053,-0.402555 -2.01104,-0.0032 -2.26394,0.03386 -3.18945,0.467586 -1.32687,0.621818 -2.7835,2.017341 -3.30168,3.163178 -0.40764,0.901409 -0.41178,0.975227 -0.49842,8.890848 -0.0849,7.760757 -0.0975,7.99555 -0.4537,8.474834 -0.49844,0.670735 -1.05335,0.924159 -2.03025,0.927213 -0.67387,0.0021 -0.93603,-0.09585 -1.43944,-0.537846 z"
     style="fill:#000000;stroke-width:0.174739" />
  <path
     id="path120"
     d="m 167.22721,38.420784 c -2.01177,-0.505663 -3.53265,-1.410918 -5.26555,-3.134166 -1.36328,-1.355687 -1.70933,-1.824388 -2.39179,-3.239472 -1.08519,-2.250131 -1.35513,-3.359232 -1.46643,-6.025023 -0.11021,-2.639787 0.14229,-4.210116 1.01344,-6.302705 2.57927,-6.195703 9.62463,-9.338496 16.04174,-7.155899 3.21928,1.09495 6.07766,3.741967 7.52805,6.971386 1.06237,2.365472 1.10638,2.7423 1.18199,10.121022 0.0671,6.551924 0.0575,6.801608 -0.28905,7.517589 -0.43403,0.896569 -1.13544,1.344528 -2.10528,1.344528 -1.58999,0 -2.45267,-0.967589 -2.45373,-2.752137 -3.5e-4,-0.600665 -0.0221,-1.092118 -0.0483,-1.092118 -0.0262,0 -0.49185,0.412821 -1.03479,0.917379 -1.25242,1.16388 -2.56255,1.955861 -4.18865,2.532066 -1.61644,0.572779 -4.84131,0.719913 -6.52167,0.29755 z m 6.03832,-4.548253 c 3.61938,-1.056504 5.82496,-4.296243 5.81887,-8.54727 -0.005,-3.733382 -1.61874,-6.621134 -4.49268,-8.041252 -4.49961,-2.223417 -9.55105,-0.111456 -11.32606,4.73532 -0.52412,1.431128 -0.56886,4.934255 -0.0813,6.363862 0.93288,2.735259 3.23639,5.006341 5.65631,5.576673 1.0917,0.257292 3.40031,0.211727 4.42484,-0.08733 z"
     style="fill:#000000;stroke-width:0.174739" />
</svg>
