<?xml version="1.0" standalone="no"?>
<!DOCTYPE svg PUBLIC "-//W3C//DTD SVG 20010904//EN"
 "http://www.w3.org/TR/2001/REC-SVG-20010904/DTD/svg10.dtd">
<svg version="1.0" xmlns="http://www.w3.org/2000/svg"
 width="728.000000pt" height="728.000000pt" viewBox="0 0 728.000000 728.000000"
 preserveAspectRatio="xMidYMid meet">
<metadata>
Created by potrace 1.11, written by Peter Selinger 2001-2013
</metadata>
<g transform="translate(0.000000,728.000000) scale(0.100000,-0.100000)"
fill="#000000" stroke="none">
<path d="M117 5242 c1 -719 2 -1315 2 -1324 1 -17 23 -18 315 -18 242 0 315 3
318 13 2 6 3 167 3 357 -2 334 0 363 27 392 7 7 52 65 100 128 48 63 97 128
110 143 l23 28 43 -83 c23 -46 60 -117 83 -158 22 -41 70 -131 106 -200 37
-69 74 -138 83 -155 9 -16 52 -97 95 -180 43 -82 83 -156 88 -163 6 -8 22 -37
36 -65 l26 -52 348 -2 348 -2 -22 37 c-13 20 -27 46 -32 57 -6 11 -14 27 -18
35 -5 8 -23 44 -41 80 -18 36 -36 67 -40 68 -5 2 -8 12 -8 22 0 10 -3 20 -7
22 -5 2 -25 37 -47 78 -21 41 -60 116 -86 165 -26 50 -68 128 -92 175 -82 155
-145 274 -178 335 -18 33 -53 98 -78 145 -25 47 -64 119 -87 160 -95 168 -88
149 -70 177 13 20 117 166 190 268 42 60 186 262 195 275 23 33 153 217 170
240 11 14 43 60 71 103 29 42 57 77 61 77 4 0 8 7 8 15 0 8 5 15 10 15 6 0 10
7 10 15 0 8 5 15 10 15 6 0 10 7 10 15 0 8 5 15 10 15 6 0 10 6 10 14 0 8 6
17 12 19 7 3 -141 5 -329 6 l-341 1 -119 -175 c-65 -97 -123 -183 -128 -193
-27 -46 -139 -207 -147 -210 -4 -2 -8 -8 -8 -13 0 -4 -47 -77 -103 -161 -57
-84 -147 -218 -200 -297 -54 -79 -98 -142 -98 -140 -1 2 -3 270 -3 594 l-2
590 -319 2 -320 3 2 -1308z"/>
<path d="M2539 6538 c-1 -7 -2 -604 -3 -1325 l-1 -1313 120 0 c327 -2 459 0
464 6 3 3 7 339 8 747 0 408 2 744 2 747 1 6 51 -67 51 -75 0 -3 5 -11 11 -18
5 -7 61 -91 124 -187 62 -96 118 -180 124 -187 6 -7 11 -16 11 -21 0 -4 8 -17
18 -28 10 -10 26 -33 37 -51 19 -30 375 -560 472 -701 24 -35 43 -67 43 -72 0
-4 4 -10 8 -12 4 -1 29 -36 56 -75 l48 -73 253 0 253 0 3 23 c2 12 4 607 3
1322 l0 1300 -295 2 -296 2 1 -739 c1 -406 -1 -748 -4 -760 -4 -18 -10 -12
-35 34 -17 31 -33 56 -37 56 -5 0 -8 4 -8 10 0 7 -106 184 -148 246 -23 35
-208 320 -342 529 -57 88 -141 217 -187 287 -45 71 -83 130 -83 133 0 3 -5 11
-10 18 -21 25 -60 88 -60 97 0 6 -4 10 -9 10 -5 0 -18 17 -28 38 l-20 37 -271
3 c-215 2 -272 0 -273 -10z"/>
<path d="M4970 6540 c0 -6 11 -27 23 -48 13 -20 35 -57 49 -82 51 -89 125
-216 151 -257 15 -24 27 -44 27 -47 0 -2 25 -46 56 -97 31 -52 65 -107 74
-124 10 -16 33 -57 52 -90 19 -33 89 -151 154 -263 65 -112 127 -217 138 -235
10 -18 29 -50 42 -73 l24 -41 -46 -74 c-26 -41 -55 -86 -65 -101 -11 -15 -19
-30 -19 -33 0 -3 -12 -24 -27 -48 -37 -58 -326 -535 -380 -627 -42 -72 -112
-188 -133 -220 -5 -8 -39 -64 -75 -125 -37 -60 -98 -162 -137 -225 -79 -130
-265 -437 -289 -478 -138 -232 -381 -628 -388 -630 -7 -2 -63 88 -150 241 -39
69 -84 143 -103 170 -11 15 -16 27 -12 27 4 0 0 8 -8 18 -8 9 -28 40 -44 67
-15 28 -35 62 -44 76 -8 14 -28 49 -45 77 l-30 52 -342 0 -342 0 83 -142 c64
-111 384 -657 510 -871 10 -18 32 -57 49 -87 17 -30 38 -66 49 -79 10 -13 18
-27 18 -32 0 -4 14 -29 31 -54 l31 -46 -42 -72 c-23 -40 -54 -92 -68 -117 -14
-25 -29 -46 -34 -48 -4 -2 -8 -7 -8 -11 0 -5 -50 -90 -110 -190 -61 -100 -110
-186 -110 -191 0 -4 -4 -10 -8 -12 -4 -2 -37 -52 -73 -111 -35 -59 -80 -134
-99 -166 -75 -124 -82 -136 -80 -140 1 -2 -2 -7 -7 -10 -8 -6 -93 -144 -102
-166 -2 -5 -7 -12 -10 -15 -15 -11 -50 -80 -43 -84 4 -2 149 -4 322 -4 l315 0
140 235 c77 129 147 247 155 261 24 42 152 255 166 275 10 16 20 5 82 -100 38
-65 79 -134 90 -153 49 -87 121 -209 145 -247 15 -24 27 -46 27 -50 0 -3 6
-14 14 -22 7 -9 27 -41 43 -71 17 -30 40 -71 52 -91 l22 -37 335 0 c184 0 336
4 339 7 2 4 -51 99 -117 211 -67 113 -135 230 -151 260 -17 30 -34 57 -39 58
-4 2 -8 9 -8 16 0 6 -11 27 -23 46 -13 19 -35 56 -49 81 -45 80 -53 94 -58 99
-3 3 -11 16 -18 30 -7 14 -18 34 -25 45 -39 65 -114 192 -120 205 -4 8 -47 82
-96 165 l-88 149 93 155 c52 85 94 158 94 163 0 4 4 8 8 8 4 0 14 16 21 35 7
19 16 35 21 35 5 0 10 6 12 12 2 7 32 62 68 121 36 60 70 118 77 130 7 12 17
29 23 37 17 25 80 132 80 136 0 3 15 28 33 57 18 28 38 61 45 72 6 11 28 47
47 80 20 33 46 76 58 96 12 20 46 76 75 125 29 49 58 96 63 104 5 8 79 132
164 275 85 143 159 265 165 272 5 7 10 14 10 17 0 4 240 408 321 541 10 17 28
47 39 67 11 20 24 39 28 42 9 5 122 -177 122 -195 0 -5 4 -9 9 -9 5 0 11 -6
13 -13 2 -8 72 -131 157 -275 l153 -262 339 0 c187 0 339 3 339 6 0 5 -269
467 -451 774 -4 8 -36 62 -69 120 -33 58 -64 112 -69 120 -6 8 -43 71 -83 140
-40 69 -78 134 -85 145 -7 11 -15 25 -18 31 -4 8 195 357 283 494 9 14 25 40
35 59 10 19 25 41 33 48 8 8 14 18 14 22 0 4 50 90 110 191 61 100 110 187
110 191 0 5 4 9 8 9 4 0 18 19 30 43 12 23 26 49 32 57 34 53 90 152 90 160 0
6 6 10 13 10 9 0 9 2 0 8 -9 5 -562 9 -595 3 -5 -1 -69 -101 -123 -193 -5 -10
-39 -65 -75 -124 -36 -59 -76 -126 -89 -148 -12 -23 -29 -48 -37 -57 -8 -8
-14 -20 -14 -26 0 -6 -8 -21 -18 -34 -11 -13 -30 -44 -44 -69 -51 -91 -63
-110 -70 -110 -3 0 -18 21 -33 48 -15 26 -35 55 -43 65 -8 9 -12 17 -9 17 3 0
-15 35 -42 78 -26 42 -51 84 -54 92 -4 8 -15 27 -25 42 -9 14 -46 77 -82 139
-36 61 -76 131 -90 154 -14 23 -38 65 -55 93 l-30 52 -337 0 c-217 0 -338 -4
-338 -10z"/>
<path d="M540 2025 l0 -1325 318 2 317 3 2 510 c1 281 2 517 2 525 1 14 52 15
420 15 231 0 423 -3 426 -7 4 -4 7 -241 7 -527 l0 -519 319 0 319 0 0 1324 0
1324 -319 0 -318 0 -1 -522 c0 -288 -1 -532 -1 -543 -1 -20 -8 -20 -426 -20
l-425 0 -1 25 c0 14 -1 258 -2 543 l0 517 -319 0 -318 0 0 -1325z"/>
</g>
</svg>
